<?xml version="1.0" encoding="UTF-8"?>
<svg id="svg12" xmlns="http://www.w3.org/2000/svg" viewBox="0 0 98.6 96.2">
  <defs>
    <style>
      .cls-1 {
        fill: #fff;
      }
    </style>
  </defs>
  <path id="path47-5" class="cls-1" d="m49.6,0c-5.9,0-10.6,4.8-10.6,10.6s4.8,10.6,10.6,10.6,10.6-4.8,10.6-10.6h0c0-5.8-4.7-10.6-10.6-10.6ZM14.6,24.6c-1.9,0-3.8.1-5.5.6-1.2.3-2.3.8-3,1.5-.9,1-1,2.2-.6,3.3.4,1,1.5,1.7,2.7,2.1,2.6.9,5.5,1.1,8.2,1.6.5.1,1.1.3,1.4.6.3.4.1,1-.4,1.2-.9.5-2,.5-3.1.4-.9,0-2-.1-2.7-.6-.6-.3-.6-.9-.5-1.4h-6.1c0,.9.2,1.9.8,2.7.6.7,1.5,1.2,2.5,1.4,1.6.5,3.3.6,5,.6,2.3,0,4.6,0,6.8-.5,1.3-.3,2.6-.8,3.4-1.7,1.5-1.5,1.1-3.9-.8-5-1-.6-2.2-.9-3.4-1.2-1.8-.4-3.5-.6-5.3-.9-.6-.1-1.3-.2-1.8-.5s-.6-1,0-1.3c.7-.4,1.7-.4,2.6-.4s1.9.1,2.7.5c.4.2.6.6.6,1h5.8c0-.7-.2-1.5-.7-2.1-.6-.8-1.7-1.3-2.8-1.6-2.1-.2-4-.3-5.8-.3h0Zm12.5.4v13.8h16.9v-3h-10.7v-2.7h9.5v-2.9h-9.5v-2.2h10.3v-3h-16.5Zm27.9,0h-7.8v13.8h5.9v-9.3l8.1,9.3h8.1v-13.8h-5.9v9.2l-8.4-9.2Zm24.9,0s-6.4,9.2-9.6,13.8h6.2l1.5-2.5h9.6l1.4,2.5h6.9l-9.1-13.8h-6.9Zm3.1,3.3l3,5h-6.1l3.1-5ZM0,42.8l.1,7.5,28.2-.1c1.4.3,2.3,1.2,2,3.4l-17.4,30.3,5.6,5.3,26.8-46.4H0Zm53.7,0l26.4,46.2,5.8-5.2-17.5-30.3c-.3-2.1.5-3.1,2-3.4l28.2.1v-7.4h-44.9Zm-4.4,7.7l-24.8,42.4,6.6,3.2,16.5-27.9c.6-.5,1.1-.7,1.7-.7s1.2.2,1.8.7l16.5,28,6.8-3.5-25.1-42.2Z"/>
</svg>